<svg xmlns="http://www.w3.org/2000/svg" enable-background="new 0 0 512 512" viewBox="0 0 512 512" id="birthday-cake">
  <path fill="#dd5113" d="M308.5 11c11.05 0 20 18.95 20 30s-8.95 20-20 20-20-8.95-20-20S297.45 11 308.5 11zM203.5 11c11.05 0 20 18.95 20 30s-8.95 20-20 20-20-8.95-20-20S192.45 11 203.5 11z"></path>
  <path fill="#e3effc" d="M223.5 81v50h-40V81c0-11.05 8.95-20 20-20C214.54 61 223.5 69.96 223.5 81zM328.5 81v50h-40V81c0-11.05 8.95-20 20-20C319.54 61 328.5 69.96 328.5 81z"></path>
  <path fill="#faf0af" d="M381,121c-73.746,0-115.417,0-250,0c-16.57,0-30,13.43-30,30v30.63L125,211h271l15-29.75V151
			C411,134.43,397.57,121,381,121z"></path>
  <path fill="#b9741b" d="M411,181.25v62.25H101v-61.87c6.18,3.18,13.55,5.62,24.87,5.62c32.44,0,32.44-20,64.87-20
			c32.44,0,32.44,20,64.88,20s32.44-20,64.87-20c32.44,0,32.44,20,64.88,20C397.16,187.25,404.66,184.61,411,181.25z"></path>
  <path fill="#faf0af" d="M421,233.5c-16.256,0-313.798,0-330,0c-16.57,0-30,13.43-30,30V291l28.333,50l345.333,6.333
			C451.804,347.333,447.431,291,451,291v-27.5C451,246.93,437.57,233.5,421,233.5z"></path>
  <path fill="#b9741b" d="M451,291v130H61V291c32.44,0,32.44,20,64.87,20c32.44,0,32.44-20,64.87-20
			c32.44,0,32.44,20,64.88,20s32.44-20,64.87-20c32.44,0,32.44,20,64.88,20s32.44-20,64.88-20H451z"></path>
  <path fill="#95c7ee" d="M501,411c0,49.705-40.279,90-90,90H101c-49.71,0-90-40.29-90-90C14.191,411,482.978,411,501,411z"></path>
  <g>
    <path d="M501,401h-40V263.5c0-22.056-17.944-40-40-40c0-15.657,0-58.205,0-72.5c0-22.056-17.944-40-40-40h-42.5V81
					c0-7.678-2.902-14.688-7.663-20c4.761-5.312,7.663-12.322,7.663-20c0-15.924-11.965-40-30-40s-30,24.076-30,40
					c0,7.678,2.902,14.688,7.663,20c-4.761,5.312-7.663,12.322-7.663,20v30h-45V81c0-7.678-2.902-14.688-7.663-20
					c4.761-5.312,7.663-12.322,7.663-20c0-15.924-11.965-40-30-40s-30,24.076-30,40c0,7.678,2.902,14.688,7.663,20
					c-4.761,5.312-7.663,12.322-7.663,20v30H131c-22.056,0-40,17.944-40,40v72.5c-22.056,0-40,17.944-40,40V401H11
					c-5.522,0-10,4.478-10,10c0,55.141,44.859,100,100,100h310c55.141,0,100-44.859,100-100C511,405.478,506.522,401,501,401z
					 M302.644,27.504c2.865-5.082,5.409-6.441,5.828-6.506c0.476,0.064,3.02,1.424,5.885,6.506
					C317.203,32.556,318.5,38.041,318.5,41c0,5.514-4.486,10-10,10s-10-4.486-10-10C298.5,38.041,299.797,32.556,302.644,27.504z
					 M298.5,81c0-5.514,4.486-10,10-10s10,4.486,10,10v30h-20V81z M197.644,27.504c2.865-5.082,5.409-6.441,5.828-6.506
					c0.476,0.064,3.02,1.424,5.885,6.506C212.203,32.556,213.5,38.041,213.5,41c0,5.514-4.486,10-10,10s-10-4.486-10-10
					C193.5,38.041,194.797,32.556,197.644,27.504z M193.5,81c0-5.514,4.486-10,10-10s10,4.486,10,10v30h-20V81z M131,131
					c3.539,0,244.984,0,250,0c11.028,0,20,8.972,20,20v23.812c-3.884,1.417-8.752,2.438-15.63,2.438
					c-13.386,0-19.479-3.756-27.192-8.512c-8.734-5.385-18.633-11.488-37.688-11.488c-19.05,0-28.946,6.103-37.679,11.487
					c-7.713,4.756-13.806,8.513-27.191,8.513s-19.479-3.756-27.192-8.512c-8.734-5.385-18.633-11.488-37.688-11.488
					c-19.05,0-28.946,6.103-37.679,11.487c-7.713,4.756-13.806,8.513-27.191,8.513c-6.482,0-11.185-0.93-14.87-2.182V151
					C111,139.972,119.972,131,131,131z M111,195.781c4.609,0.993,9.484,1.469,14.87,1.469c19.056,0,28.955-6.104,37.688-11.489
					c7.712-4.755,13.803-8.511,27.182-8.511c13.385,0,19.478,3.756,27.191,8.512c8.734,5.385,18.633,11.488,37.688,11.488
					s28.955-6.104,37.688-11.489c7.712-4.755,13.803-8.511,27.182-8.511c13.385,0,19.478,3.756,27.191,8.512
					c8.734,5.385,18.633,11.488,37.688,11.488c6.119,0,11.253-0.653,15.63-1.646V223.5H111V195.781z M91,243.5
					c16.223,0,313.75,0,330,0c11.028,0,20,8.972,20,20v18.04c-13.244,1.597-21.243,6.512-28.438,10.947
					c-7.714,4.756-13.807,8.513-27.191,8.513c-13.384,0-19.477-3.757-27.19-8.512C349.447,287.104,339.548,281,320.493,281
					s-28.953,6.104-37.687,11.488c-7.714,4.755-13.806,8.512-27.189,8.512c-13.383,0-19.476-3.757-27.188-8.512
					C219.696,287.104,209.798,281,190.744,281c-19.053,0-28.951,6.104-37.684,11.488c-7.713,4.756-13.805,8.512-27.188,8.512
					s-19.476-3.757-27.188-8.512c-7.058-4.352-14.884-9.171-27.685-10.86V263.5C71,252.472,79.972,243.5,91,243.5z M71,301.887
					c7.036,1.382,11.71,4.247,17.188,7.625C96.921,314.896,106.819,321,125.873,321c19.053,0,28.951-6.104,37.685-11.488
					c7.712-4.756,13.804-8.512,27.187-8.512s19.476,3.757,27.188,8.512c8.732,5.385,18.631,11.488,37.685,11.488
					s28.952-6.104,37.686-11.487c7.714-4.756,13.806-8.513,27.19-8.513s19.478,3.757,27.191,8.513
					c8.733,5.384,18.633,11.487,37.687,11.487c19.055,0,28.954-6.104,37.688-11.487c5.672-3.497,10.478-6.448,17.941-7.768V401H71
					V301.887z M411,491H101c-40.726,0-74.44-30.592-79.378-70c11.958,0,455.581,0,468.756,0C485.44,460.408,451.726,491,411,491z"></path>
  </g>
</svg>
