<svg xmlns="http://www.w3.org/2000/svg" xml:space="preserve" id="hazelnut" x="0" y="0" enable-background="new 0 0 64 64" version="1.1" viewBox="0 0 64 64">
  <circle cx="32" cy="32" r="32" fill="#53b4ed"></circle>
  <path d="M56.28,26.64c-1.01-5.51-4.1-10.3-8.71-13.48l-3.59-2.48C39.37,7.49,33.8,6.29,28.28,7.3C22.77,8.31,17.99,11.4,14.8,16
			l-6.56,9.5c-0.12,0.13-0.19,0.29-0.2,0.47c0,0.07,0,0.13,0.02,0.2c0.03,0.19,0.14,0.37,0.31,0.49c0.16,0.11,0.34,0.16,0.52,0.13
			c0.38,0.02,0.75,0.02,1.13,0.03C7.78,32,7.73,38.97,9.91,46.2c1.95,6.46,7.95,10.85,14.58,10.85c0.45,0,0.89-0.02,1.34-0.05
			c10.98-0.99,16.46-5.05,18.52-7.01c0.27,0.86,0.49,1.45,0.58,1.68c0.02,0.09,0.05,0.16,0.1,0.23c0.14,0.22,0.38,0.34,0.64,0.34
			c0.05,0,0.1-0.01,0.16-0.02c0.22-0.05,0.41-0.19,0.52-0.39c0,0,0-0.01,0.01-0.02l6.56-9.5C56.09,37.72,57.29,32.15,56.28,26.64z
			 M25.69,55.48c-6.44,0.58-12.46-3.51-14.33-9.72c-2.18-7.19-2.04-14.08,0.34-18.97c6.51-0.38,11.53-3.34,14.44-5.6
			c-2.22,7.15,1.3,15.17,1.47,15.56c0.12,0.26,0.36,0.43,0.64,0.45c7.66,0.5,12.68-2.14,15.44-4.26c-1.7,5.79-0.77,11.72,0.16,15.35
			C42.76,49.5,37.62,54.4,25.69,55.48z M51.65,41.46l-5.76,8.35c-1.06-3.36-3.19-12.15,0.45-19.49c0.18-0.35,0.05-0.78-0.28-0.99
			c-0.13-0.08-0.26-0.11-0.4-0.11c-0.23,0-0.46,0.1-0.61,0.31c-0.05,0.07-5.13,6.7-16.21,6.17c-0.8-2.03-3.92-10.95,0.24-17.18
			c0.22-0.34,0.15-0.78-0.16-1.03c-0.32-0.25-0.77-0.2-1.04,0.09c-0.07,0.08-7.01,7.72-17.65,7.72l5.82-8.43
			c2.95-4.27,7.4-7.14,12.5-8.08c5.11-0.93,10.28,0.18,14.55,3.13l3.59,2.48c4.27,2.95,7.14,7.39,8.08,12.5
			C55.72,32.02,54.6,37.19,51.65,41.46z"></path>
  <path fill="#bf6f31" d="M43.86,48.29c-1.1,1.21-6.25,6.11-18.17,7.19c-6.44,0.58-12.46-3.51-14.33-9.72
			c-2.18-7.19-2.04-14.08,0.34-18.97c6.51-0.38,11.53-3.34,14.44-5.6c-2.22,7.15,1.3,15.17,1.47,15.56
			c0.12,0.26,0.36,0.43,0.64,0.45c7.66,0.5,12.68-2.14,15.44-4.26C42.01,38.72,42.93,44.66,43.86,48.29z"></path>
  <path fill="#72b62b" d="M51.65,41.46l-5.76,8.35c-1.06-3.36-3.19-12.15,0.45-19.49c0.18-0.35,0.05-0.78-0.28-0.99
			c-0.13-0.08-0.26-0.11-0.4-0.11c-0.23,0-0.46,0.1-0.61,0.31c-0.05,0.07-5.13,6.7-16.21,6.17c-0.8-2.03-3.92-10.95,0.24-17.18
			c0.22-0.34,0.15-0.78-0.16-1.03c-0.32-0.25-0.77-0.2-1.04,0.09c-0.07,0.08-7.01,7.72-17.65,7.72l5.82-8.43
			c2.95-4.27,7.4-7.14,12.5-8.08c5.11-0.93,10.28,0.18,14.55,3.13l3.59,2.48c4.27,2.95,7.14,7.39,8.08,12.5
			C55.72,32.02,54.6,37.19,51.65,41.46z"></path>
</svg>
