<svg xmlns="http://www.w3.org/2000/svg" id="fruits" enable-background="new 0 0 64 64" viewBox="0 0 64 64">
  <path fill="#ff8939" d="M40.81,19.59C44.56,23.95,47,31.02,47,39c0,10.86-4.51,20.04-10.7,22.99C34.94,62.65,33.49,63,32,63c-1.49,0-2.94-0.35-4.3-1.01C21.51,59.04,17,49.86,17,39c0-7.98,2.44-15.05,6.19-19.41c0.16-0.19,0.32-0.37,0.49-0.55c1.11-1.19,2.32-2.15,3.62-2.83C28.78,15.42,30.36,15,32,15c1.72,0,3.38,0.47,4.92,1.33c0.37,0.2,0.73,0.42,1.08,0.67c0.39,0.28,0.78,0.58,1.16,0.91C39.73,18.41,40.29,18.97,40.81,19.59z"></path>
  <path fill="#ed5607" d="M47,39c0,10.86-4.51,20.04-10.7,22.99C34.94,62.65,33.49,63,32,63s-2.94-0.35-4.3-1.01c-2.53-1.2-4.78-3.45-6.55-6.43C22.07,55.85,23.03,56,24,56c1.49,0,2.94-0.35,4.3-1.01C34.49,52.04,39,42.86,39,32c0-6.42-1.58-12.26-4.16-16.56c0.71,0.21,1.41,0.51,2.08,0.89c0.37,0.2,0.73,0.42,1.08,0.67c0.39,0.28,0.78,0.58,1.16,0.91c0.57,0.5,1.13,1.06,1.65,1.68C44.56,23.95,47,31.02,47,39z"></path>
  <path fill="#939f5c" d="M37.95,39.95c4.95-4.95,2.828-9.899,2.828-9.899l-2.121,2.121l-2.121-3.536l-1.414,2.828c-3.536-3.536-7.071-1.414-7.071-1.414s-2.121,3.536,1.414,7.071l-2.828,1.414l3.536,2.121l-2.121,2.121C28.05,42.778,33,44.899,37.95,39.95z"></path>
  <path fill="#6e7745" d="M37.95,39.95c-1.03,1.03-2.06,1.75-3.04,2.25c0.19-1.02,0.29-2.1,0.29-3.2c0-3.66-1.11-6.97-2.9-9.32c0.89,0.28,1.86,0.82,2.82,1.78l1.42-2.82l2.12,3.53l2.12-2.12C40.78,30.05,42.9,35,37.95,39.95z"></path>
  <path fill="#6e1982" d="M17.06 57C16.4 57.63 16 58.52 16 59.5c0-1.28-.69-2.39-1.71-3 1.02-.61 1.71-1.72 1.71-3 0-1.56-1.02-2.88-2.43-3.33C13.85 49.68 14 49.1 14 48.5c0 1.79 1.35 3.27 3.09 3.47C16.42 52.61 16 53.51 16 54.5 16 55.48 16.4 56.37 17.06 57zM32.92 62.95C32.62 62.99 32.31 63 32 63c-1.19 0-2.36-.22-3.47-.66C29.42 61.71 30 60.67 30 59.5 30 61.23 31.26 62.67 32.92 62.95zM29.83 45.39l.01.03c-1.1.6-1.84 1.75-1.84 3.08 0 .96.39 1.84 1.03 2.47l-.06.06C28.34 50.39 27.46 50 26.5 50c-.22 0-.43.02-.63.06.7-.63 1.13-1.55 1.13-2.56 0-1.43-.86-2.66-2.1-3.2.07-.26.1-.52.1-.8 0-.24-.02-.48-.07-.7l.13-.02c.29 1.63 1.72 2.87 3.44 2.87C28.97 45.65 29.42 45.56 29.83 45.39zM23.5 51c.22 0 .43-.02.63-.06C23.43 51.57 23 52.49 23 53.5c0 .16.01.32.03.47l-.07.01c-.23-1.55-1.48-2.77-3.05-2.95.39-.37.69-.82.87-1.33C21.43 50.5 22.41 51 23.5 51z"></path>
  <path fill="#731889" d="M24.71,56.5c-1.02,0.61-1.71,1.72-1.71,3c0-0.98-0.4-1.87-1.06-2.5C22.6,56.37,23,55.48,23,54.5c0-0.18-0.01-0.35-0.04-0.52l0.07-0.01C23.18,55.05,23.82,55.97,24.71,56.5z"></path>
  <path fill="#ff8939" d="M63,41.19c0,2.13-0.14,4.05-0.4,5.79c-0.09-0.3-0.19-0.59-0.3-0.88c-1.53-3.83-4.88-3.6-7.36-2.76c0.02-0.6,0-1.21-0.03-1.81C54.3,31.1,50.79,25.4,46.7,22.36C51.95,23.17,63,26.63,63,41.19z"></path>
  <path fill="#f27520" d="M54.91,41.53c0.03,0.6,0.05,1.21,0.03,1.81c-1.73,0.58-3.04,1.46-3.04,1.46s-2.47-1.65-5.09-1.93C46.93,41.61,47,40.32,47,39c0-7.98-2.44-15.05-6.19-19.41c1.94,0.49,3.98,1.34,5.89,2.77C50.79,25.4,54.3,31.1,54.91,41.53z"></path>
  <path fill="#ff8939" d="M44.02,60.08c0.93,1.32,1.97,2.3,2.97,2.71C45.64,62.94,44.3,63,43,63l-5.16-0.77C39.72,61.8,41.88,61.13,44.02,60.08z"></path>
  <path fill="#e72846" d="M62.6,46.99v-0.01c-0.09-0.3-0.19-0.59-0.3-0.88c-1.53-3.83-4.88-3.6-7.36-2.76c-1.73,0.58-3.04,1.46-3.04,1.46s-2.47-1.65-5.09-1.93c-1.33-0.14-2.7,0.07-3.81,1.02c-0.59,0.5-1.1,1.22-1.5,2.21c-0.33,0.82-0.53,1.7-0.63,2.62c-0.28,2.58,0.29,5.44,1.3,7.91c0.51,1.29,1.15,2.47,1.85,3.45c0.93,1.32,1.97,2.3,2.97,2.71C47.33,62.93,47.67,63,48,63c3.9,0,3.9-1.3,3.9-1.3s0,1.3,3.9,1.3C59.53,63,64.44,53.5,62.6,46.99z"></path>
  <path fill="#c03" d="M55.8,63c-1.42,0-2.33-0.17-2.9-0.39c2.95-2.88,5.51-9.63,4.1-14.62v-0.01c-0.09-0.3-0.19-0.59-0.3-0.88c-0.76-1.9-1.97-2.8-3.3-3.12c0.45-0.22,0.97-0.45,1.54-0.64c2.48-0.84,5.83-1.07,7.36,2.76c0.11,0.29,0.21,0.58,0.3,0.88v0.01C64.44,53.5,59.53,63,55.8,63z"></path>
  <path fill="#ff8939" d="M42.17,56.63c0.51,1.29,1.15,2.47,1.85,3.45c-2.14,1.05-4.3,1.72-6.18,2.15L36.3,62C38.52,60.94,40.52,59.08,42.17,56.63z"></path>
  <path fill="#939f5c" d="M36.35,11.8l0.57,4.53C35.38,15.47,33.72,15,32,15c-1.64,0-3.22,0.42-4.7,1.21L30,9V3.25C30,2.01,31.01,1,32.25,1c1.03,0,1.93,0.7,2.18,1.7L36,9L36.35,11.8z"></path>
  <path fill="#6e7745" d="M36.92,16.33c-0.81-0.45-1.66-0.8-2.53-1.02l-0.15-1.17l-0.35-2.8l-1.57-6.3c-0.25-1-1.15-1.7-2.18-1.7c-0.05,0-0.09,0-0.14,0.01v-0.1C30,2.01,31.01,1,32.25,1c1.03,0,1.93,0.7,2.18,1.7L36,9l0.35,2.8L36.92,16.33z"></path>
  <path fill="#8618a0" d="M37,55.5c0,0.74-0.23,1.44-0.64,2c-0.63-0.91-1.68-1.5-2.86-1.5s-2.23,0.59-2.86,1.5c-0.41-0.56-0.64-1.26-0.64-2c0-1.93,1.57-3.5,3.5-3.5S37,53.57,37,55.5z"></path>
  <path fill="#a83ec3" d="M36.36 57.5c.41.56.64 1.26.64 2 0 1.16-.57 2.19-1.44 2.82-.85.33-1.73.55-2.64.63C31.26 62.67 30 61.23 30 59.5c0-.74.23-1.44.64-2 .63-.91 1.68-1.5 2.86-1.5S35.73 56.59 36.36 57.5zM34.72 47.13C34.9 47.55 35 48.02 35 48.5c0 1.93-1.57 3.5-3.5 3.5-.96 0-1.84-.39-2.47-1.03C28.39 50.34 28 49.46 28 48.5c0-1.33.74-2.48 1.84-3.08C30.33 45.15 30.9 45 31.5 45 32.94 45 34.19 45.88 34.72 47.13z"></path>
  <path fill="#8618a0" d="M31.85,43.16c-0.3,1.01-1.05,1.83-2.02,2.23c-0.41,0.17-0.86,0.26-1.33,0.26c-1.72,0-3.15-1.24-3.44-2.87C25.02,42.57,25,42.36,25,42.15c0-1.37,0.79-2.56,1.95-3.14c0.09-0.04,0.18-0.08,0.27-0.12l2.95,1.77l-2.12,2.12C28.05,42.78,29.61,43.45,31.85,43.16z"></path>
  <path fill="#a83ec3" d="M28.97,51.03C29.61,51.66,30,52.54,30,53.5c0,1.28-0.69,2.39-1.71,3c-0.52-0.32-1.14-0.5-1.79-0.5s-1.27,0.18-1.79,0.5c-0.89-0.53-1.53-1.45-1.68-2.53C23.01,53.82,23,53.66,23,53.5c0-1.01,0.43-1.93,1.13-2.56c0.67-0.12,1.27-0.43,1.74-0.88c0.2-0.04,0.41-0.06,0.63-0.06C27.46,50,28.34,50.39,28.97,51.03z"></path>
  <path fill="#8618a0" d="M28.29 56.5c1.02.61 1.71 1.72 1.71 3 0 1.17-.58 2.21-1.47 2.84C27.96 62.76 27.25 63 26.5 63c-1.93 0-3.5-1.57-3.5-3.5 0-1.28.69-2.39 1.71-3 .52-.32 1.14-.5 1.79-.5S27.77 56.18 28.29 56.5zM24.9 44.3c1.24.54 2.1 1.77 2.1 3.2 0 1.01-.43 1.93-1.13 2.56-.47.45-1.07.76-1.74.88C23.93 50.98 23.72 51 23.5 51c-1.09 0-2.07-.5-2.72-1.3.15-.38.22-.78.22-1.2 0-.58-.14-1.14-.4-1.62.29.08.59.12.9.12C23.15 47 24.54 45.85 24.9 44.3z"></path>
  <path fill="#6e1982" d="M26.95,39.01C25.79,39.59,25,40.78,25,42.15c0,0.21,0.02,0.42,0.06,0.63l-0.13,0.02C24.6,41.2,23.19,40,21.5,40c-0.05,0-0.11,0-0.16,0.01C21.9,38.82,23.1,38,24.5,38C25.45,38,26.32,38.38,26.95,39.01z"></path>
  <path fill="#a83ec3" d="M24.93,42.8c0.05,0.22,0.07,0.46,0.07,0.7c0,0.28-0.03,0.54-0.1,0.8c-0.36,1.55-1.75,2.7-3.4,2.7c-0.31,0-0.61-0.04-0.9-0.12c-0.45-0.86-1.25-1.51-2.2-1.76c-0.26-0.48-0.4-1.04-0.4-1.62c0-1.88,1.48-3.41,3.34-3.49C21.39,40,21.45,40,21.5,40C23.19,40,24.6,41.2,24.93,42.8z"></path>
  <path fill="#8618a0" d="M22.96,53.98C22.99,54.15,23,54.32,23,54.5c0,0.98-0.4,1.87-1.06,2.5c-0.63-0.62-1.49-1-2.44-1s-1.81,0.38-2.44,1C16.4,56.37,16,55.48,16,54.5c0-0.99,0.42-1.89,1.09-2.53C17.23,51.99,17.36,52,17.5,52c0.93,0,1.79-0.37,2.41-0.97C21.48,51.21,22.73,52.43,22.96,53.98z"></path>
  <path fill="#a83ec3" d="M21.94 57C22.6 57.63 23 58.52 23 59.5c0 1.93-1.57 3.5-3.5 3.5S16 61.43 16 59.5c0-.98.4-1.87 1.06-2.5.63-.62 1.49-1 2.44-1S21.31 56.38 21.94 57zM21 48.5c0 .42-.07.82-.22 1.2-.18.51-.48.96-.87 1.33C19.29 51.63 18.43 52 17.5 52c-.14 0-.27-.01-.41-.03C15.35 51.77 14 50.29 14 48.5c0-1.93 1.57-3.5 3.5-3.5.05 0 .11 0 .16.01.25.01.5.04.74.11.95.25 1.75.9 2.2 1.76C20.86 47.36 21 47.92 21 48.5z"></path>
  <path fill="#f27520" d="M23.19,19.59C19.44,23.95,17,31.02,17,39c0,1.91,0.14,3.78,0.41,5.56C16.78,43.62,15.72,43,14.5,43c-1.43,0-2.66,0.86-3.2,2.1c-0.26-0.07-0.52-0.1-0.8-0.1c-0.46,0-0.91,0.09-1.32,0.27c-0.14-1.24-0.16-2.49-0.09-3.74C9.7,31.1,13.21,25.4,17.3,22.36C19.21,20.93,21.25,20.08,23.19,19.59z"></path>
  <path fill="#6e1982" d="M17.66,45.01C17.61,45,17.55,45,17.5,45c-1.93,0-3.5,1.57-3.5,3.5c0-1.65-1.15-3.04-2.7-3.4c0.54-1.24,1.77-2.1,3.2-2.1c1.22,0,2.28,0.62,2.91,1.56v0.01C17.51,44.71,17.59,44.86,17.66,45.01z"></path>
  <path fill="#731889" d="M13.57,50.17C14.98,50.62,16,51.94,16,53.5c0,1.28-0.69,2.39-1.71,3c-0.52,0.32-1.14,0.5-1.79,0.5s-1.27-0.18-1.79-0.5c-0.93-0.55-1.58-1.52-1.69-2.64C9.01,53.74,9,53.62,9,53.5c0-0.6,0.15-1.18,0.43-1.67C9.77,51.94,10.13,52,10.5,52C11.82,52,12.98,51.26,13.57,50.17z"></path>
  <path fill="#8618a0" d="M16 59.5c0 1.93-1.57 3.5-3.5 3.5S9 61.43 9 59.5c0-1.28.69-2.39 1.71-3 .52.32 1.14.5 1.79.5s1.27-.18 1.79-.5C15.31 57.11 16 58.22 16 59.5zM14 48.5c0 .6-.15 1.18-.43 1.67C12.98 51.26 11.82 52 10.5 52c-.37 0-.73-.06-1.07-.17C8.02 51.38 7 50.06 7 48.5c0-.53.12-1.04.34-1.49.37-.79 1.03-1.42 1.84-1.74C9.59 45.09 10.04 45 10.5 45c.28 0 .54.03.8.1C12.85 45.46 14 46.85 14 48.5z"></path>
  <path fill="#ff8939" d="M17.3,22.36c-4.09,3.04-7.6,8.74-8.21,19.17c-0.07,1.25-0.05,2.5,0.09,3.74c-0.81,0.32-1.47,0.95-1.84,1.74C5.48,47.09,4,48.62,4,50.5c0,0.28,0.03,0.54,0.1,0.8c-0.54,0.23-1.01,0.6-1.36,1.06C1.64,49.46,1,45.81,1,41.19C1,26.63,12.05,23.17,17.3,22.36z"></path>
  <path fill="#6e1982" d="M9.02,53.86c0.11,1.12,0.76,2.09,1.69,2.64C9.69,57.11,9,58.22,9,59.5c0-0.98-0.4-1.87-1.06-2.5C8.6,56.37,9,55.48,9,54.5c0-0.22-0.02-0.43-0.06-0.63L9.02,53.86z"></path>
  <path fill="#a83ec3" d="M9.43,51.83C9.15,52.32,9,52.9,9,53.5c0,0.12,0.01,0.24,0.02,0.36l-0.08,0.01C8.64,52.24,7.21,51,5.5,51c-0.5,0-0.97,0.1-1.4,0.3C4.03,51.04,4,50.78,4,50.5c0-1.88,1.48-3.41,3.34-3.49C7.12,47.46,7,47.97,7,48.5C7,50.06,8.02,51.38,9.43,51.83z"></path>
  <path fill="#8618a0" d="M8.94,53.87C8.98,54.07,9,54.28,9,54.5c0,0.98-0.4,1.87-1.06,2.5c-0.63-0.62-1.49-1-2.44-1s-1.81,0.38-2.44,1C2.4,56.37,2,55.48,2,54.5c0-0.8,0.27-1.55,0.74-2.14c0.35-0.46,0.82-0.83,1.36-1.06C4.53,51.1,5,51,5.5,51C7.21,51,8.64,52.24,8.94,53.87z"></path>
  <path fill="#a83ec3" d="M7.94,57C8.6,57.63,9,58.52,9,59.5C9,61.43,7.43,63,5.5,63S2,61.43,2,59.5c0-0.98,0.4-1.87,1.06-2.5c0.63-0.62,1.49-1,2.44-1S7.31,56.38,7.94,57z"></path>
  <ellipse cx="47.713" cy="46.58" fill="#fb7e72" rx="1.735" ry=".951" transform="rotate(-24.314 47.722 46.58)"></ellipse>
  <path fill="#ffb888" d="M23.612,27.355c-0.745,0.565-1.813-0.007-1.807-0.942c0.007-1.063,0.452-2.661,2.327-4.629C27.13,18.638,26.196,25.395,23.612,27.355z"></path>
  <ellipse cx="22.2" cy="30.593" fill="#ffb888" rx="1.2" ry="1.6"></ellipse>
  <ellipse cx="9.794" cy="47.01" fill="#c590d1" rx="1.023" ry=".461" transform="rotate(-30 9.792 47.01)"></ellipse>
  <ellipse cx="16.916" cy="47.01" fill="#c590d1" rx="1.023" ry=".461" transform="rotate(-30 16.913 47.01)"></ellipse>
  <ellipse cx="20.6" cy="41.988" fill="#c590d1" rx="1.023" ry=".461" transform="rotate(-30 20.598 41.989)"></ellipse>
  <ellipse cx="30.916" cy="47.13" fill="#c590d1" rx="1.023" ry=".461" transform="rotate(-30 30.913 47.13)"></ellipse>
  <ellipse cx="25.626" cy="52.36" fill="#c590d1" rx="1.023" ry=".461" transform="rotate(-30 25.623 52.36)"></ellipse>
  <ellipse cx="32.92" cy="57.903" fill="#c590d1" rx="1.023" ry=".461" transform="rotate(-30 32.917 57.904)"></ellipse>
  <ellipse cx="25.816" cy="57.903" fill="#c590d1" rx="1.023" ry=".461" transform="rotate(-30 25.813 57.904)"></ellipse>
  <ellipse cx="18.576" cy="58.149" fill="#c590d1" rx="1.023" ry=".461" transform="rotate(-30 18.573 58.149)"></ellipse>
  <ellipse cx="4.754" cy="57.903" fill="#c590d1" rx="1.023" ry=".461" transform="rotate(-30 4.751 57.903)"></ellipse>
  <ellipse cx="4.754" cy="52.936" fill="#c590d1" rx="1.023" ry=".461" transform="rotate(-30 4.752 52.936)"></ellipse>
  <ellipse cx="18.325" cy="54.015" fill="#c590d1" rx="1.023" ry=".461" transform="rotate(-30 18.322 54.015)"></ellipse>
  <ellipse cx="11.5" cy="53.86" fill="#c590d1" rx="1.023" ry=".461" transform="rotate(-30 11.497 53.86)"></ellipse>
  <ellipse cx="11.5" cy="59" fill="#c590d1" rx="1.023" ry=".461" transform="rotate(-30 11.497 59)"></ellipse>
  <ellipse cx="32.92" cy="54.015" fill="#c590d1" rx="1.023" ry=".461" transform="rotate(-30 32.917 54.016)"></ellipse>
  <path fill="#6e1982" d="M33.91,52.03C33.77,52.01,33.64,52,33.5,52c-1.93,0-3.5,1.57-3.5,3.5c0,0.74,0.23,1.44,0.64,2c-0.41,0.56-0.64,1.26-0.64,2c0-1.28-0.69-2.39-1.71-3c1.02-0.61,1.71-1.72,1.71-3c0-0.96-0.39-1.84-1.03-2.47l0.06-0.06C29.66,51.61,30.54,52,31.5,52c0.72,0,1.4-0.22,1.95-0.6C33.62,51.6,33.78,51.81,33.91,52.03z"></path>
  <g>
    <path fill="#333" d="M38.963 25.744c.182.334.525.523.88.523.161 0 .324-.039.477-.121.485-.264.665-.871.401-1.356-.636-1.171-1.348-2.223-2.114-3.126-.358-.422-.988-.471-1.41-.115-.421.357-.473.988-.115 1.409C37.76 23.757 38.393 24.694 38.963 25.744zM35.483 18.99C34.328 18.333 33.156 18 32 18c-.553 0-1 .448-1 1s.447 1 1 1c.806 0 1.645.245 2.495.729.156.089.325.131.493.131.348 0 .686-.182.87-.506C36.132 19.874 35.964 19.263 35.483 18.99z"></path>
    <path fill="#333" d="M45,13c0,2.206,1.794,4,4,4s4-1.794,4-4v-2h10c0.553,0,1-0.448,1-1s-0.447-1-1-1H52.873C52.429,7.277,50.86,6,49,6c-1.682,0-3.352,0.265-4.949,0.769c-0.058-0.651-0.252-1.417-0.789-2.105C42.399,3.56,40.966,3,39,3c-0.553,0-1,0.448-1,1s0.447,1,1,1c1.311,0,2.212,0.298,2.678,0.885c0.439,0.554,0.425,1.291,0.385,1.655c-0.354,0.164-0.703,0.338-1.045,0.528l-3.858,2.143l-0.168-1.336c-0.005-0.04-0.013-0.079-0.021-0.117l-1.571-6.301C35.038,1.011,33.743,0,32.25,0C30.458,0,29,1.458,29,3.25v5.569l-2.514,6.713c-1.367,0.773-2.658,1.838-3.843,3.18c-2.11,0.571-4.03,1.476-5.718,2.696C11.657,22.269,0,25.905,0,41.19c0,4.267,0.555,7.972,1.637,11.039C1.242,52.898,1,53.668,1,54.5c0,0.896,0.274,1.766,0.764,2.496C1.282,57.712,1,58.574,1,59.5C1,61.981,3.019,64,5.5,64c1.421,0,2.675-0.675,3.5-1.706C9.825,63.325,11.079,64,12.5,64s2.675-0.675,3.5-1.706C16.825,63.325,18.079,64,19.5,64s2.675-0.675,3.5-1.706C23.825,63.325,25.079,64,26.5,64s2.675-0.675,3.5-1.706C30.825,63.325,32.079,64,33.5,64c1.056,0,2.015-0.38,2.783-0.991l6.57,0.981C42.901,63.997,42.95,64,43,64c1.352,0,2.652-0.07,3.883-0.198C47.259,63.927,47.633,64,48,64c2.007,0,3.197-0.343,3.9-0.772C52.604,63.657,53.793,64,55.8,64c1.639,0,3.401-1.271,4.964-3.578c2.382-3.519,3.984-9.067,2.85-13.478C63.868,45.173,64,43.241,64,41.19c0-15.285-11.657-18.921-16.925-19.782c-1.689-1.221-3.608-2.126-5.716-2.696c-1.091-1.234-2.269-2.231-3.506-2.98l-0.424-3.382l4.56-2.534C44.129,8.628,46.553,8,49,8c0.739,0,1.386,0.403,1.731,1H49C46.794,9,45,10.794,45,13z M30.937,9.351C30.979,9.239,31,9.12,31,9V3.25C31,2.561,31.561,2,32.25,2c0.573,0,1.07,0.388,1.209,0.942l1.557,6.242l0.342,2.724c0,0.003,0.001,0.006,0.001,0.008l0.349,2.778c-2.19-0.802-4.486-0.881-6.68-0.245L30.937,9.351z M13.918,24.163c-3.428,3.983-5.386,9.782-5.826,17.311c-0.063,1.11-0.034,2.18,0.047,3.213c-0.576,0.358-1.064,0.836-1.428,1.407c-1.966,0.345-3.458,1.943-3.666,3.94C2.355,47.494,2,44.534,2,41.19C2,30.239,8.418,25.884,13.918,24.163z M19,43.5c0-1.378,1.121-2.5,2.5-2.5s2.5,1.122,2.5,2.5S22.879,46,21.5,46c-0.1,0-0.192-0.027-0.289-0.038c-0.503-0.732-1.217-1.303-2.053-1.636C19.065,44.066,19,43.791,19,43.5z M30.172,36.414c-1.718-1.718-1.871-3.404-1.695-4.522l6.704,6.704l-5.189-0.649c0.237-0.153,0.413-0.385,0.459-0.666C30.503,36.964,30.399,36.641,30.172,36.414z M42.186,47.522c-0.03,0.018-0.063,0.027-0.094,0.043c0.091-0.376,0.197-0.744,0.337-1.094c0.141-0.353,0.303-0.663,0.48-0.943C43.164,46.265,42.879,47.106,42.186,47.522z M40.571,45.729c-0.194,0.486-0.341,0.994-0.458,1.513c-0.149-0.154-0.273-0.333-0.354-0.537l-0.583-1.459l1.041-0.744c0.345-0.246,0.757-0.343,1.171-0.294C41.076,44.656,40.8,45.158,40.571,45.729z M39.82,49.419c-0.103,2.343,0.386,4.823,1.219,7.058c-0.552,0.772-1.134,1.493-1.751,2.119c-0.388,0.393-0.384,1.026,0.009,1.414c0.195,0.192,0.449,0.289,0.703,0.289c0.258,0,0.516-0.099,0.712-0.297c0.432-0.438,0.849-0.914,1.253-1.416c0.187,0.366,0.379,0.724,0.582,1.064c-1.473,0.639-3.065,1.165-4.757,1.562l-0.126-0.019C37.877,60.669,38,60.099,38,59.5c0-0.715-0.183-1.383-0.481-1.984C37.831,56.901,38,56.205,38,55.5c0-1.949-1.252-3.596-2.989-4.22C35.621,50.512,36,49.554,36,48.5c0-0.315-0.034-0.621-0.095-0.918l1.595-1.139l0.401,1.005C38.258,48.339,38.954,49.03,39.82,49.419z M3.272,55.614C3.1,55.274,3,54.899,3,54.5C3,53.122,4.121,52,5.5,52S8,53.122,8,54.5c0,0.399-0.1,0.774-0.272,1.114C7.068,55.234,6.314,55,5.5,55S3.932,55.234,3.272,55.614z M6,48.505c0.001,0.556,0.115,1.084,0.301,1.576C6.041,50.034,5.774,50,5.5,50c-0.156,0-0.304,0.031-0.456,0.046C5.159,49.417,5.508,48.873,6,48.505z M10,53.5c0-0.187,0.028-0.368,0.067-0.544C10.212,52.97,10.352,53,10.5,53c1.358,0,2.563-0.618,3.389-1.572C14.571,51.881,15,52.647,15,53.5c0,1.378-1.121,2.5-2.5,2.5S10,54.878,10,53.5z M17.5,46c1.379,0,2.5,1.122,2.5,2.5S18.879,51,17.5,51S15,49.878,15,48.5S16.121,46,17.5,46z M27.183,40.03l1.376,0.825l-1.216,1.216c-0.234,0.234-0.338,0.57-0.275,0.896c0.063,0.326,0.283,0.6,0.589,0.73c0.087,0.037,0.944,0.386,2.263,0.501c-0.409,0.284-0.9,0.451-1.419,0.451c-1.379,0-2.5-1.122-2.5-2.5C26,41.275,26.454,40.486,27.183,40.03z M31.5,51c-1.379,0-2.5-1.122-2.5-2.5s1.121-2.5,2.5-2.5s2.5,1.122,2.5,2.5S32.879,51,31.5,51z M30.035,42.208l0.844-0.844c0.218-0.218,0.323-0.523,0.285-0.829c-0.02-0.165-0.086-0.315-0.18-0.448l4.563,0.57C33.369,42.147,31.357,42.328,30.035,42.208z M25.327,45.836C25.739,46.287,26,46.866,26,47.5c0,1.378-1.121,2.5-2.5,2.5c-0.59,0-1.148-0.213-1.594-0.585C21.967,49.119,22,48.813,22,48.5c0-0.187-0.033-0.364-0.055-0.545C23.379,47.812,24.61,47.007,25.327,45.836z M17.272,55.614C17.1,55.274,17,54.899,17,54.5c0-0.55,0.187-1.068,0.518-1.502c0.996-0.004,1.907-0.343,2.651-0.896C21.235,52.395,22,53.362,22,54.5c0,0.399-0.1,0.774-0.272,1.114C21.068,55.234,20.314,55,19.5,55S17.932,55.234,17.272,55.614z M24.827,55.33C24.309,54.862,24,54.213,24,53.5c0-0.632,0.249-1.227,0.671-1.674c0.59-0.16,1.128-0.436,1.596-0.804C26.344,51.014,26.419,51,26.5,51c1.379,0,2.5,1.122,2.5,2.5c0,0.713-0.309,1.362-0.827,1.83C27.655,55.122,27.092,55,26.5,55S25.345,55.122,24.827,55.33z M31.019,55.751C31.011,55.668,31,55.585,31,55.5c0-1.378,1.121-2.5,2.5-2.5s2.5,1.122,2.5,2.5c0,0.085-0.011,0.168-0.019,0.251C35.269,55.279,34.417,55,33.5,55S31.731,55.279,31.019,55.751z M36.735,44.531l-1.702,1.216c-0.619-0.792-1.487-1.375-2.496-1.615c0.011-0.023,0.018-0.047,0.029-0.07c1.061-0.2,2.231-0.617,3.446-1.339L36.735,44.531z M38.657,37.548l-0.571-4.564c0.133,0.093,0.283,0.16,0.449,0.181c0.312,0.041,0.612-0.068,0.829-0.286l0.843-0.843C40.329,33.36,40.147,35.371,38.657,37.548z M35.947,31.993l0.649,5.189l-6.704-6.704c1.12-0.177,2.805-0.023,4.522,1.693c0.227,0.227,0.547,0.331,0.867,0.28C35.563,32.406,35.795,32.23,35.947,31.993z M24.472,40.147c-0.366-0.325-0.774-0.603-1.231-0.796C23.614,39.131,24.043,39,24.5,39c0.237,0,0.464,0.043,0.684,0.106C24.897,39.418,24.66,39.769,24.472,40.147z M14,45.706c-0.327-0.408-0.716-0.759-1.164-1.034C13.287,44.26,13.866,44,14.5,44c0.457,0,0.886,0.131,1.26,0.351C15.061,44.645,14.467,45.123,14,45.706z M10.5,46c1.379,0,2.5,1.122,2.5,2.5S11.879,51,10.5,51S8,49.878,8,48.5S9.121,46,10.5,46z M5.5,62C4.121,62,3,60.878,3,59.5S4.121,57,5.5,57S8,58.122,8,59.5S6.879,62,5.5,62z M12.5,62c-1.379,0-2.5-1.122-2.5-2.5c0-0.713,0.309-1.362,0.827-1.83C11.345,57.878,11.908,58,12.5,58s1.155-0.122,1.673-0.33C14.691,58.138,15,58.787,15,59.5C15,60.878,13.879,62,12.5,62z M19.5,62c-1.379,0-2.5-1.122-2.5-2.5s1.121-2.5,2.5-2.5s2.5,1.122,2.5,2.5S20.879,62,19.5,62z M26.5,62c-1.379,0-2.5-1.122-2.5-2.5s1.121-2.5,2.5-2.5s2.5,1.122,2.5,2.5S27.879,62,26.5,62z M33.5,62c-1.379,0-2.5-1.122-2.5-2.5s1.121-2.5,2.5-2.5s2.5,1.122,2.5,2.5S34.879,62,33.5,62z M43.074,62l-0.732-0.109c0.464-0.18,0.916-0.37,1.359-0.57c0.183,0.228,0.367,0.447,0.553,0.647C43.863,61.981,43.476,61.999,43.074,62z M59.107,59.301C57.98,60.966,56.713,62,55.8,62c-2.156,0-2.798-0.426-2.928-0.537C52.766,61.025,52.371,60.7,51.9,60.7s-0.865,0.325-0.972,0.763C50.799,61.574,50.156,62,48,62c-0.912,0-2.18-1.034-3.307-2.698c-1.676-2.475-2.965-6.221-2.881-9.572c0.49-0.066,0.968-0.231,1.403-0.492c1.74-1.044,2.308-3.311,1.262-5.053l-0.012-0.02c0.114-0.05,0.219-0.117,0.341-0.155c2.755-0.862,6.503,1.598,6.541,1.623c0.337,0.223,0.773,0.223,1.108,0c1.04-0.694,4.242-2.336,6.536-1.624c1.071,0.333,1.851,1.139,2.38,2.463C62.921,50.344,61.361,55.972,59.107,59.301z M40.052,20.242C43.776,24.573,46,31.585,46,39c0,0.552,0.447,1,1,1s1-0.448,1-1c0-6.522-1.651-12.78-4.503-17.399c0.928,0.435,1.799,0.956,2.607,1.561c3.215,2.39,5.481,6.119,6.735,11.083C52.954,34.698,53.36,35,53.808,35c0.081,0,0.164-0.01,0.246-0.03c0.535-0.136,0.859-0.679,0.725-1.215c-0.986-3.9-2.574-7.106-4.72-9.599C55.563,25.872,62,30.224,62,41.19c0,0.828-0.028,1.63-0.071,2.413c-0.647-0.711-1.427-1.219-2.345-1.505c-1.198-0.372-2.471-0.311-3.652-0.061c-0.007-0.2-0.015-0.393-0.024-0.566c-0.03-0.532-0.069-1.053-0.115-1.562c-0.05-0.55-0.538-0.951-1.086-0.906c-0.55,0.05-0.956,0.536-0.906,1.086c0.044,0.488,0.081,0.987,0.11,1.49c0.016,0.307,0.027,0.68,0.031,1.066c-0.476,0.188-0.906,0.386-1.275,0.572c-0.186-1.051-0.27-3.21,1.365-5.663c0.307-0.459,0.183-1.081-0.277-1.387c-0.462-0.308-1.081-0.182-1.387,0.277c-1.741,2.611-1.9,5.011-1.747,6.525c-1.656-0.761-4.166-1.569-6.405-0.873c-0.447,0.139-0.859,0.333-1.242,0.573c-0.322-0.179-0.662-0.328-1.028-0.404c-1-0.208-2.057,0.011-2.892,0.608l-0.644,0.459l-0.72-1.8c0.322-0.27,0.644-0.555,0.966-0.877c0.009-0.009,0.016-0.019,0.026-0.028c0.004-0.005,0.008-0.009,0.012-0.014c5.313-5.353,3.099-10.732,3.002-10.959c-0.131-0.305-0.404-0.525-0.729-0.588c-0.331-0.063-0.662,0.041-0.896,0.275l-1.216,1.215l-1.463-2.437c-0.188-0.312-0.525-0.496-0.896-0.484c-0.365,0.014-0.693,0.226-0.856,0.552l-0.84,1.679c-2.937-2.176-5.962-1.457-7.266-0.675c-0.141,0.084-0.259,0.202-0.343,0.343c-0.781,1.302-1.501,4.327,0.676,7.266l-1.372,0.686C25.883,37.18,25.209,37,24.5,37c-1.535,0-2.962,0.802-3.781,2.079c-1.889,0.333-3.361,1.843-3.651,3.746C16.326,42.304,15.435,42,14.5,42c-1.526,0-2.922,0.778-3.744,2.026C10.669,44.021,10.588,44,10.5,44c-0.137,0-0.267,0.028-0.401,0.041c-0.043-0.795-0.058-1.608-0.011-2.452c0.513-8.756,3.14-14.956,7.812-18.428c0.806-0.604,1.677-1.124,2.604-1.56C17.651,26.221,16,32.478,16,39c0,0.552,0.447,1,1,1s1-0.448,1-1c0-7.415,2.224-14.427,5.95-18.76c1.179-1.378,2.461-2.436,3.82-3.147c2.775-1.48,5.855-1.457,8.668,0.114C37.713,17.907,38.928,18.928,40.052,20.242z M51,11v2c0,1.103-0.897,2-2,2s-2-0.897-2-2s0.897-2,2-2H51z"></path>
  </g>
</svg>
