<svg xmlns="http://www.w3.org/2000/svg" xmlns:xlink="http://www.w3.org/1999/xlink" viewBox="0 0 64 64" id="bathroom-amenities">
  <pattern id="c" width="10.22" height="10.22" x="-336" overflow="visible" patternUnits="userSpaceOnUse" viewBox="0 -10.22 10.22 10.22">
    <path fill="none" d="M0-10.22h10.22V0H0z"></path>
    <path fill="#dc5151" d="M0-10.22h10.22V0H0z"></path>
  </pattern>
  <pattern id="a" width="10.22" height="10.22" x="-336" overflow="visible" patternUnits="userSpaceOnUse" viewBox="0 -10.22 10.22 10.22">
    <path fill="none" d="M0-10.22h10.22V0H0z"></path>
    <path fill="#292f63" d="M0-10.22h10.22V0H0z"></path>
  </pattern>
  <pattern xlink:href="#a" id="b" patternTransform="translate(-8.25 -3.716)"></pattern>
  <path fill="url(#b)" d="M60.87 37.46c.29-1.14.42-2.24.39-3.28v-.07c-.13-3.73-2.25-6.83-6.37-9.26a.516.516 0 0 0-.42-.03c-.14.05-.25.16-.3.3-.02.04-1.45 3.72-11.96 3.51-.9-.02-1.74.12-2.51.37l1.66-22.82a.447.447 0 0 0-.14-.36.479.479 0 0 0-.35-.16H21.48c-.14 0-.27.06-.36.16-.09.1-.14.24-.13.36l1.03 14.23c-.66-.4-1.37-.74-2.12-.99v-6.11a.49.49 0 0 0-.49-.49h-2.25V8.67c.31-.14.6-.3.87-.49.13-.09.21-.24.21-.39v-2.6a.493.493 0 0 0-.78-.4c-.69.49-1.58.81-2.63.95-.85.12-1.77.07-2.99-.14-4.66-.82-9.07.52-10.75 1.13C.44 6.96 0 7.62 0 8.36c0 .58.27 1.11.71 1.44a1.505 1.505 0 0 0 1.38.22C3.77 9.48 6.93 8.68 10.37 9v3.81H8.11a.49.49 0 0 0-.49.49v6.1C3.38 20.84.45 24.88.45 29.39v26.72c0 1.76 1.43 3.2 3.18 3.2H23.9c1.3 0 2.47-.83 2.94-2.01.19.03.37.06.56.06h32.85c2.07 0 3.75-1.68 3.75-3.75V41.15c0-1.86-1.36-3.4-3.13-3.69zm-18.68-7.85c9.07.18 11.84-2.47 12.63-3.64 3.37 2.1 5.16 4.64 5.43 7.68H36.7c.2-1.44.94-2.5 2.28-3.28.91-.53 2.01-.78 3.21-.76zm18.09 5.02c-.02.88-.16 1.8-.41 2.76H37.15c-.32-1.02-.47-1.94-.5-2.76h23.63zm-21.6-5.21c-.06.03-.13.06-.19.09-1.77 1.02-2.71 2.52-2.82 4.53-.01.03-.02.07-.02.1 0 .04.01.08.02.12-.02.95.14 2.02.47 3.2-1.77.3-3.12 1.83-3.12 3.69v4.34h-8.19l-1-13.81v-.04l-.75-10.3v-.03l-.79-10.86h17.77l-1.38 18.97zm-5.66 17.06v6.65h-8.16v-6.65h8.16zm-11-39.84h18.32l-.21 2.83H22.22l-.2-2.83zM1.78 9.08A.528.528 0 0 1 1.29 9a.782.782 0 0 1-.31-.64c0-.32.18-.61.44-.71 1.25-.46 4.1-1.34 7.38-1.34.93 0 1.88.07 2.86.24 1.33.24 2.34.28 3.29.16.87-.12 1.63-.33 2.29-.67v1.48c-.66.41-1.47.69-2.42.81-.85.12-1.77.07-2.99-.14-.28-.05-.54-.07-.82-.11a.415.415 0 0 0-.16-.03c-.01 0-.02.01-.04.01-3.74-.42-7.21.43-9.03 1.02zm14.4-.04v3.76h-4.82V9.11c.11.02.21.02.32.04 1.32.22 2.33.27 3.28.15.43-.05.83-.15 1.22-.26zm-7.57 4.75h10.32v5.33c-.77-.19-1.59-.29-2.42-.29h-5.48c-.84 0-1.64.1-2.41.28v-5.32zm-7.17 15.6c0-4.19 2.8-7.97 6.82-9.17a8.95 8.95 0 0 1 2.76-.41h5.48c.96 0 1.9.14 2.77.41 1.04.32 1.99.81 2.85 1.43l.69 9.52H1.44v-1.78zm0 2.77h21.44l1 13.8H1.44v-13.8zM23.9 58.33H3.63c-1.21 0-2.2-.99-2.2-2.22v-9.17h22.44v6.89c0 1.4.83 2.61 2.02 3.17-.34.79-1.12 1.33-1.99 1.33zm3.5-1.95c-1.31 0-2.37-1-2.51-2.27h8.18c.12.9.54 1.69 1.19 2.27H27.4zm35.62-2.77a2.77 2.77 0 0 1-2.77 2.77H36.78a2.77 2.77 0 0 1-2.77-2.77V41.15c0-1.53 1.24-2.78 2.77-2.78h23.47c1.53 0 2.77 1.25 2.77 2.78v12.46z"></path>
  <pattern xlink:href="#c" id="d" patternTransform="translate(-8.25 -3.716)"></pattern>
  <path fill="url(#d)" d="M60.25 33.65H36.7c.2-1.44.94-2.5 2.28-3.28.91-.52 2.01-.78 3.21-.76 9.07.18 11.84-2.47 12.63-3.64 3.37 2.09 5.16 4.63 5.43 7.68z"></path>
  <pattern xlink:href="#c" id="e" patternTransform="translate(-8.25 -3.716)"></pattern>
  <path fill="url(#e)" d="M60.25 38.37H36.78c-1.53 0-2.77 1.25-2.77 2.78v12.47a2.77 2.77 0 0 0 2.77 2.77h23.47a2.77 2.77 0 0 0 2.77-2.77V41.15c0-1.53-1.25-2.78-2.77-2.78zM48.51 52.92c-3.06 0-5.55-2.49-5.55-5.54 0-3.06 2.49-5.55 5.55-5.55 3.05 0 5.54 2.49 5.54 5.55.01 3.05-2.49 5.54-5.54 5.54z"></path>
  <path fill="#63bae5" d="m40.34 6.64-.21 2.82H22.22l-.2-2.82zM24.86 46.48h8.16v6.65h-8.16z"></path>
  <pattern xlink:href="#c" id="f" patternTransform="translate(-8.25 -3.716)"></pattern>
  <path fill="url(#f)" d="M18.92 13.79v5.33c-.77-.19-1.59-.29-2.42-.29h-5.48c-.84 0-1.64.1-2.41.28v-5.32h10.31z"></path>
  <pattern xlink:href="#c" id="g" patternTransform="translate(-8.25 -3.716)"></pattern>
  <path fill="url(#g)" d="M17.25 6.04v1.48c-.66.41-1.47.69-2.42.81-.85.12-1.77.07-2.99-.14-.28-.05-.54-.07-.82-.11a.415.415 0 0 0-.16-.03c-.01 0-.02.01-.04.01-3.75-.42-7.22.43-9.04 1.02A.528.528 0 0 1 1.29 9a.782.782 0 0 1-.31-.64c0-.32.18-.61.44-.71 1.25-.46 4.1-1.34 7.38-1.34.93 0 1.88.07 2.86.24 1.33.24 2.34.28 3.29.16.87-.12 1.64-.34 2.3-.67z"></path>
  <pattern xlink:href="#c" id="h" patternTransform="translate(-8.25 -3.716)"></pattern>
  <path fill="url(#h)" d="M22.8 31.17H1.44v-1.78c0-4.19 2.8-7.97 6.82-9.17a8.95 8.95 0 0 1 2.76-.41h5.48c.96 0 1.9.14 2.77.41 1.04.32 1.99.81 2.85 1.43l.68 9.52z"></path>
  <pattern xlink:href="#c" id="i" patternTransform="translate(-8.25 -3.716)"></pattern>
  <path fill="url(#i)" d="M25.9 57.01c-.34.78-1.12 1.32-2 1.32H3.63c-1.21 0-2.2-.99-2.2-2.22v-9.17h22.44v6.89c.01 1.41.83 2.62 2.03 3.18z"></path>
  <pattern xlink:href="#a" id="j" patternTransform="translate(-8.25 -3.716)"></pattern>
  <path fill="url(#j)" d="M36.67 12.84H25.69c-.27 0-.49.23-.49.49v5.34c0 .27.23.49.49.49h10.98c.27 0 .49-.23.49-.49v-5.34c0-.26-.23-.49-.49-.49zm-.5 5.34h-9.99v-4.35h9.99v4.35z"></path>
  <path fill="#63bae5" d="M26.18 13.83h9.99v4.35h-9.99z"></path>
  <pattern xlink:href="#a" id="k" patternTransform="translate(-8.25 -3.716)"></pattern>
  <path fill="url(#k)" d="M18.13 37.24H15.6v-2.61c0-.27-.23-.49-.49-.49h-2.68c-.27 0-.49.23-.49.49v2.61H9.4c-.28 0-.49.22-.49.49v2.67c0 .27.22.49.49.49h2.53v2.6c0 .28.23.49.49.49h2.68c.27 0 .49-.22.49-.49v-2.6h2.53c.28 0 .49-.23.49-.49v-2.67a.476.476 0 0 0-.48-.49zm-.5 2.67H15.1c-.28 0-.49.22-.49.49V43h-1.69v-2.6c0-.28-.22-.49-.49-.49H9.9v-1.68h2.53c.28 0 .49-.23.49-.49v-2.61h1.69v2.61c0 .27.22.49.49.49h2.53v1.68z"></path>
  <pattern xlink:href="#c" id="l" patternTransform="translate(-8.25 -3.716)"></pattern>
  <path fill="url(#l)" d="M17.63 38.22v1.68H15.1c-.28 0-.49.22-.49.49V43h-1.69v-2.6c0-.28-.22-.49-.49-.49H9.9v-1.68h2.53c.28 0 .49-.23.49-.49v-2.61h1.69v2.61c0 .27.22.49.49.49h2.53z"></path>
  <pattern xlink:href="#a" id="m" patternTransform="translate(-8.25 -3.716)"></pattern>
  <path fill="url(#m)" d="M48.51 41.83c-3.06 0-5.55 2.49-5.55 5.55 0 3.05 2.49 5.54 5.55 5.54 3.05 0 5.54-2.49 5.54-5.54.01-3.06-2.49-5.55-5.54-5.55zm0 10.11c-2.52 0-4.57-2.05-4.57-4.56 0-2.52 2.05-4.57 4.57-4.57 2.51 0 4.56 2.05 4.56 4.57a4.57 4.57 0 0 1-4.56 4.56z"></path>
</svg>
