<svg xmlns="http://www.w3.org/2000/svg" enable-background="new 0 0 512 512" viewBox="0 0 512 512" id="milk">
  <path fill="#fff" d="M306.899,205.007v279.419c0,13.007-10.567,23.573-23.574,23.573H93.411c-13.007,0-23.573-10.566-23.573-23.573V205.007c0-36.889,10.165-73.098,29.381-104.581l30.865-50.669h116.568l30.865,50.669C296.734,131.909,306.899,168.118,306.899,205.007z"></path>
  <path fill="#ededed" d="M306.899,205.007v279.419c0,13.007-10.567,23.573-23.574,23.573h-33.182c13.007,0,23.574-10.566,23.574-23.573V205.007c0-36.889-10.165-73.098-29.382-104.581l-30.864-50.669h33.181l30.865,50.669C296.734,131.909,306.899,168.118,306.899,205.007z"></path>
  <rect width="237.061" height="166.51" x="69.838" y="219.206" fill="#fedd8e"></rect>
  <rect width="33.181" height="166.495" x="273.718" y="219.219" fill="#fdd367"></rect>
  <rect width="33.183" height="166.495" x="69.838" y="219.219" fill="#fee9b4"></rect>
  <path fill="#fff" d="M269.546,26.895c0,6.334-2.565,12.018-6.704,16.158c-4.14,4.14-9.856,6.704-16.189,6.704H130.085c-12.637,0-22.894-10.226-22.894-22.863c0-6.334,2.565-12.05,6.704-16.189c4.14-4.14,9.887-6.704,16.19-6.704h116.568C259.289,4.001,269.546,14.259,269.546,26.895z"></path>
  <path fill="#d3f0fd" d="M269.546,26.895c0,6.334-2.565,12.018-6.704,16.158c-4.14,4.14-9.856,6.704-16.189,6.704H130.085c-12.637,0-22.894-10.226-22.894-22.863c0-6.334,2.565-12.05,6.704-16.189c4.14-4.14,9.887-6.704,16.19-6.704h116.568C259.289,4.001,269.546,14.259,269.546,26.895z"></path>
  <path fill="#a6e1fb" d="M269.546,26.895c0,6.334-2.565,12.018-6.704,16.158c-4.14,4.14-9.856,6.704-16.189,6.704h-33.181c6.334,0,12.049-2.564,16.189-6.704c4.14-4.14,6.704-9.825,6.704-16.158c0-12.636-10.258-22.894-22.893-22.894h33.181C259.289,4.001,269.546,14.259,269.546,26.895z"></path>
  <path fill="#e5f6fe" d="M163.266,49.758h-33.182c-12.636,0-22.894-10.226-22.894-22.863c0-6.334,2.565-12.05,6.705-16.189c4.14-4.14,9.887-6.704,16.189-6.704h33.182c-6.303,0-12.05,2.564-16.19,6.704c-4.14,4.14-6.704,9.856-6.704,16.189C140.372,39.531,150.63,49.758,163.266,49.758z"></path>
  <g>
    <path fill="#fc898c" d="M242.945,302.452c0,30.154-24.438,54.592-54.561,54.592c-30.154,0-54.592-24.438-54.592-54.592c0-30.123,24.438-54.562,54.592-54.562C218.507,247.89,242.945,272.329,242.945,302.452z"></path>
  </g>
  <g>
    <path fill="#fcb0b0" d="M197.158,267.54c0,24.129-19.588,43.717-43.687,43.717c-7.013,0-13.625-1.637-19.495-4.604c-0.123-1.39-0.185-2.781-0.185-4.202c0-30.123,24.438-54.562,54.592-54.562c1.421,0,2.811,0.062,4.202,0.155C195.521,253.915,197.158,260.526,197.158,267.54z"></path>
  </g>
  <g>
    <path fill="#f96364" d="M242.945,302.452c0,30.154-24.438,54.592-54.561,54.592c-20.607,0-38.558-11.431-47.857-28.269c7.817,4.325,16.807,6.797,26.385,6.797c30.123,0,54.561-24.438,54.561-54.592c0-9.516-2.44-18.506-6.766-26.323C231.545,263.956,242.945,281.875,242.945,302.452z"></path>
  </g>
  <g>
    <path fill="#d3f0fd" d="M442.091,272.489L422.112,493.12c-0.763,8.426-7.827,14.88-16.288,14.88H296.52c-8.461,0-15.525-6.453-16.288-14.88l-19.979-220.631c-0.867-9.576,6.673-17.83,16.288-17.83h149.261C435.417,254.659,442.957,262.913,442.091,272.489z"></path>
    <path fill="#a6e1fb" d="M442.089,272.491l-19.984,220.632c-0.754,8.429-7.815,14.876-16.272,14.876H376.64c8.457,0,15.518-6.448,16.3-14.876l19.956-220.632c0.894-9.573-6.671-17.835-16.272-17.835h29.167C435.419,254.656,442.955,262.918,442.089,272.491z"></path>
    <path fill="#e5f6fe" d="M325.703,507.999h-29.166c-8.457,0-15.518-6.448-16.3-14.876l-19.984-220.632c-0.866-9.573,6.698-17.835,16.299-17.835h29.194c-9.629,0-17.165,8.262-16.299,17.835l19.984,220.632C310.184,501.552,317.245,507.999,325.703,507.999z"></path>
    <path fill="#fff" d="M264.34,317.619l15.892,175.501c0.763,8.426,7.828,14.88,16.288,14.88h109.303c8.461,0,15.525-6.453,16.288-14.88l15.892-175.5H264.34z"></path>
    <path fill="#ededed" d="M438.015,317.622l-15.909,175.5c-0.754,8.429-7.815,14.876-16.272,14.876H376.64c8.457,0,15.518-6.448,16.3-14.876l15.881-175.5H438.015z"></path>
    <path fill="#333" d="M188.382,243.891c-32.305,0-58.59,26.269-58.59,58.562c0,32.305,26.285,58.59,58.59,58.59c32.293,0,58.562-26.285,58.562-58.59C246.945,270.16,220.675,243.891,188.382,243.891z M188.382,353.043c-27.894,0-50.59-22.695-50.59-50.59c0-27.879,22.695-50.562,50.59-50.562c27.879,0,50.562,22.683,50.562,50.562C238.945,330.347,216.261,353.043,188.382,353.043z"></path>
    <path fill="#333" d="M425.803,250.66H310.897c0-8.982,0-36.598,0-45.652c0-37.66-10.363-74.547-29.961-106.664l-27.678-45.432c4.652-1.171,8.93-3.55,12.412-7.033c5.078-5.074,7.875-11.816,7.875-18.984c0-14.828-12.066-26.894-26.894-26.894H130.086c-7.184,0-13.937,2.797-19.019,7.875c-5.078,5.078-7.875,11.832-7.875,19.019c0,12.533,8.65,23.058,20.291,26.01L95.805,98.344C76.203,130.461,65.84,167.348,65.84,205.008c0,55.879,0,222.924,0,279.417c0,15.203,12.367,27.574,27.57,27.574h189.917c2.473,0,4.849-0.368,7.12-0.996c1.928,0.597,3.944,0.996,6.071,0.996h109.304c10.602,0,19.32-7.961,20.273-18.519l19.98-220.632C447.149,260.945,437.756,250.66,425.803,250.66z M438.108,272.129l-3.758,41.492H267.995l-3.758-41.492c-0.659-7.29,5.073-13.469,12.305-13.469h149.261C433.091,258.66,438.761,264.901,438.108,272.129z M276.542,250.66c-12.002,0-21.35,10.327-20.273,22.187l9.859,108.867H73.84V223.207h229.058v27.453H276.542z M111.191,26.895c0-5.051,1.965-9.797,5.531-13.363c3.57-3.566,8.316-5.531,13.363-5.531h116.566c10.418,0,18.894,8.477,18.894,18.894c0,5.031-1.965,9.762-5.531,13.328c-3.57,3.57-8.316,5.535-13.363,5.535H130.086C119.668,45.759,111.191,37.298,111.191,26.895z M102.633,102.508l29.699-48.75h112.074l29.699,48.75c18.836,30.867,28.793,66.308,28.793,102.5v10.199H73.84v-10.199C73.84,168.817,83.797,133.376,102.633,102.508z M73.84,484.425v-94.711h193.013l9.396,103.765c0.358,3.969,1.815,7.569,4.055,10.519H93.41C82.617,503.999,73.84,495.218,73.84,484.425z M418.128,492.761c-0.578,6.406-5.867,11.238-12.305,11.238H296.519c-6.434,0-11.723-4.832-12.301-11.238l-15.498-171.14h164.906L418.128,492.761z"></path>
  </g>
</svg>
