<svg xmlns="http://www.w3.org/2000/svg" id="vegetable" viewBox="0 0 64 64">
  <path d="M46,18c-.55,0-1-.45-1-1,0-5.66,3.53-6.9,3.68-6.95.53-.18,1.09.11,1.27.63.17.52-.1,1.08-.62,1.26-.12.05-2.33.94-2.33,5.06,0,.55-.45,1-1,1Z" style="stroke-width:0;fill:#67788c"></path>
  <path d="M42.4,27.76c-1.09-2.53-3.5-4.31-6.87-5.09.81-1.88.88-3.68.19-5.27-1.22-2.84-4.72-4.46-9.33-4.34,0-1.92-.62-3.81-1.81-5.4-2.08-2.81-5.79-4.2-9.24-3.47-2.76.59-5.06,2.32-6.33,4.76-1.24,2.39-1.34,5.19-.28,7.66.48,1.11,1.18,2.11,2.05,2.95-3.28,3.16-4.55,6.77-3.33,9.61.68,1.58,2.04,2.79,3.97,3.53-1.77,2.92-2.16,5.87-1.07,8.4,1.61,3.75,6.27,5.86,12.18,5.49,3.34-.2,6.49,1.72,7.81,4.8.16.38.53.61.92.61.13,0,.26-.02.38-.08l3.77-1.57c.25-.1.44-.3.54-.55.1-.25.1-.53,0-.77-1.32-3.07-.54-6.62,1.93-8.83,4.39-3.92,6.11-8.69,4.5-12.45Z" style="stroke-width:0;fill:#dceef2"></path>
  <path d="M34.11,29.55c-.45-.32-1.07-.22-1.4.23l-4.52,6.34-4.27-9.94,3.76-5.62c.31-.46.19-1.08-.27-1.39-.46-.31-1.08-.19-1.39.27l-3.04,4.54-4.86-11.31c-.22-.51-.81-.74-1.31-.52-.51.22-.74.81-.52,1.31l4.84,11.28-5.41-1.01c-.54-.1-1.07.26-1.17.8-.1.54.26,1.07.8,1.17l6.73,1.26,4.26,9.92-7.75-1.22c-.54-.08-1.06.29-1.14.83-.09.54.29,1.06.83,1.14l9,1.42,4.97,11.56c.16.38.53.61.92.61.13,0,.27-.03.39-.08.51-.22.74-.81.52-1.31l-4.96-11.55,5.23-7.32c.32-.45.22-1.07-.23-1.4Z" style="stroke-width:0;fill:#67788c"></path>
  <circle cx="46" cy="32" r="16" style="stroke-width:0;fill:#f2865f"></circle>
  <path d="M7,57c-.55,0-1-.45-1-1,0-3.86,3.14-7,7-7,.55,0,1,.45,1,1s-.45,1-1,1c-2.76,0-5,2.24-5,5,0,.55-.45,1-1,1Z" style="stroke-width:0;fill:#67788c"></path>
  <path d="M13,51c-3.86,0-7-3.14-7-7,0-.55.45-1,1-1s1,.45,1,1c0,2.76,2.24,5,5,5,.55,0,1,.45,1,1s-.45,1-1,1Z" style="stroke-width:0;fill:#67788c"></path>
  <path d="M13,51H3c-.55,0-1-.45-1-1s.45-1,1-1h10c.55,0,1,.45,1,1s-.45,1-1,1Z" style="stroke-width:0;fill:#67788c"></path>
  <path d="M58.18,45.44l-35.14-5.33c-2.7-.41-5.46.39-7.56,2.2-2.22,1.91-3.49,4.71-3.49,7.7s1.27,5.79,3.49,7.7c1.74,1.5,3.93,2.3,6.16,2.3.46,0,.93-.04,1.39-.11l35.14-5.33c2.18-.33,3.82-2.29,3.82-4.56s-1.64-4.23-3.82-4.56Z" style="fill:#f2cc5d;stroke-width:0"></path>
  <path d="M25 53c-.55 0-1 .45-1 1v5.75l2-.31v-5.44c0-.55-.45-1-1-1ZM31 46c0 .55.45 1 1 1s1-.45 1-1v-4.38l-2-.3v4.68ZM41 51c-.55 0-1 .45-1 1v5.32l2-.31v-5.01c0-.55-.45-1-1-1ZM50 44.2v3.8c0 .55.45 1 1 1s1-.45 1-1v-3.5l-2-.3Z" style="stroke-width:0;fill:#f2865f"></path>
</svg>
